<svg width="2200" height="512.002" xmlns="http://www.w3.org/2000/svg">

 <g>
  <title>background</title>
  <rect fill="none" id="canvas_background" height="514.002" width="2202" y="-1" x="-1"/>
 </g>
 <g>
  <title>Layer 1</title>
  <path id="svg_1" fill="#CE2478" d="m501.801,219.975l-68.916,-86.146c-8.833,-11.041 -22.207,-17.469 -36.346,-17.469l-1.803,0c-14.139,0 -27.513,6.428 -36.346,17.469l-68.916,86.146c-6.602,8.253 -10.2,18.507 -10.2,29.077l0,193.128c0,25.706 20.839,46.546 46.546,46.546l0,0l139.636,0c25.706,0 46.546,-20.84 46.546,-46.546l0,0l0,-193.127c-0.002,-10.57 -3.599,-20.824 -10.201,-29.078l0,0z"/>
  <path id="svg_2" fill="#AA0D61" d="m314.182,255.998l139.636,0c19.28,0 34.909,15.629 34.909,34.909l0,0c0,19.28 -15.629,34.909 -34.909,34.909l-139.636,0c-19.28,0 -34.909,-15.629 -34.909,-34.909l0,0c0,-19.28 15.629,-34.909 34.909,-34.909z"/>
  <path id="svg_3" fill="#2B315B" d="m116.364,139.634l279.273,0c12.853,0 23.272,10.419 23.272,23.272l0,0c0,12.853 -10.419,23.272 -23.272,23.272l-279.273,0c-12.853,0 -23.272,-10.419 -23.272,-23.272l0,0c-0.001,-12.852 10.419,-23.272 23.272,-23.272z"/>
  <path id="svg_4" fill="#191F4C" d="m395.637,162.907l-279.273,0c-8.172,0.092 -15.68,4.524 -19.706,11.637c4.027,7.112 11.533,11.545 19.706,11.637l279.273,0c8.172,-0.092 15.68,-4.524 19.706,-11.637c-4.027,-7.113 -11.534,-11.546 -19.706,-11.637z"/>
  <path id="svg_5" fill="#BFC3EC" d="m511.581,107.697c-1.312,-13.571 -18.597,-18.866 -28.237,-9.226l-31.523,31.523c-12.857,12.849 -33.697,12.841 -46.546,-0.016c-12.842,-12.851 -12.842,-33.677 0,-46.528l31.415,-31.414c10.281,-10.281 3.372,-27.443 -11.128,-28.519c-9.803,-0.711 -19.657,0.154 -29.186,2.563c-36.432,9.089 -64.845,40.45 -69.73,77.68c-1.487,11.169 -0.962,22.514 1.548,33.499l-188.558,188.558l69.818,69.818l188.559,-188.559c10.981,2.509 22.323,3.034 33.49,1.55c37.232,-4.882 68.595,-33.296 77.686,-69.729c2.58,-10.187 3.388,-20.741 2.392,-31.2l0,0z"/>
  <path id="svg_6" fill="#9EA4E2" d="m509.191,138.896c0.729,-2.924 0.953,-5.755 1.392,-8.627c-8.205,0.257 -16.009,3.602 -21.855,9.365l-23.272,23.272c-12.853,12.852 -33.692,12.852 -46.546,0c-12.852,-12.853 -33.691,-12.854 -46.544,-0.001l-0.001,0.001l-162.91,162.91c-12.853,12.852 -12.854,33.691 -0.001,46.544l0.001,0.001c4.334,4.332 9.668,6.657 15.205,8.068l173.355,-173.355c10.981,2.509 22.323,3.034 33.49,1.55c37.231,-4.881 68.594,-33.295 77.686,-69.728l0,0z"/>
  <path id="svg_7" fill="#8B92CF" d="m232.727,255.998l46.546,-46.546c12.853,-12.853 33.693,-12.853 46.546,0l0,0c12.853,12.853 12.853,33.693 0,46.546l-46.546,46.545c-12.853,12.853 -33.693,12.853 -46.546,0l0,0c-12.853,-12.853 -12.853,-33.692 0,-46.545z"/>
  <path id="svg_8" fill="#E0E2FF" d="m69.818,69.816l23.273,-23.272l46.545,23.272l0,23.272l162.91,162.91l-23.273,23.272l-162.909,-162.908l-23.272,0l-23.274,-46.546z"/>
  <path id="svg_9" fill="#BFC3EC" d="m267.636,244.362l-162.909,-162.909c-6.425,-6.427 -16.844,-6.428 -23.27,-0.002c-0.001,0.001 -0.002,0.002 -0.002,0.002c-1.406,1.445 -2.532,3.14 -3.32,4.997l14.956,29.912l23.272,0l151.273,151.273c6.427,-6.428 6.427,-16.847 0,-23.273z"/>
  <path id="svg_10" fill="#0026FF" d="m237.548,274.451l60.178,-60.178c6.427,-6.427 16.846,-6.427 23.272,0c6.427,6.427 6.427,16.846 0,23.272l-1.996,1.996c-9.088,9.088 -9.088,23.824 0,32.913l0,0c4.365,4.365 10.284,6.816 16.456,6.816l16.456,0c13.093,0 25.651,5.201 34.909,14.46l87.444,87.444c19.28,19.28 19.28,50.539 0,69.818l0,0l0,0c-19.28,19.28 -50.539,19.28 -69.818,0l0,0l-87.444,-87.444c-9.259,-9.259 -14.46,-21.816 -14.46,-34.909l0,-16.456c0,-6.172 -2.452,-12.092 -6.816,-16.456c-9.088,-9.088 -23.824,-9.088 -32.913,0l0,0l-1.996,1.996c-6.427,6.427 -16.846,6.427 -23.272,0c-6.43,-6.423 -6.442,-16.836 -0.02,-23.266c0.005,-0.004 0.009,-0.008 0.02,-0.006l0,0z"/>
  <path id="svg_11" fill="#3B58FF" d="m267.636,267.634c6.427,6.427 16.846,6.427 23.272,0l28.092,-28.092l1.997,-1.997c6.421,-6.432 6.413,-16.851 -0.017,-23.272c-6.424,-6.415 -16.831,-6.415 -23.255,0l-30.089,30.089c-6.425,6.426 -6.425,16.845 0,23.272z"/>
  <path id="svg_12" fill="#F32675" d="m186.182,279.271l302.545,0c12.853,0 23.272,10.419 23.272,23.272l0,0l0,139.637c0,25.706 -20.84,46.546 -46.546,46.546l-279.272,0l0,0l0.001,-209.455l0,0l0,0z"/>
  <path id="svg_13" fill="#D51E70" d="m465.455,442.18l-174.545,0c-19.28,0 -34.909,-15.629 -34.909,-34.909l0,-93.091c0,-19.28 -15.629,-34.909 -34.909,-34.909s-34.909,15.629 -34.909,34.909l0,151.273c0,12.853 10.419,23.272 23.272,23.272l256.001,0c12.853,0 23.272,-10.419 23.272,-23.272s-10.42,-23.273 -23.273,-23.273l0,0z"/>
  <path id="svg_14" fill="#FF5794" d="m222.528,219.975l-68.916,-86.146c-8.833,-11.041 -22.207,-17.469 -36.346,-17.469l-1.803,0c-14.139,0 -27.513,6.428 -36.346,17.469l-68.917,86.146c-6.603,8.254 -10.2,18.508 -10.2,29.078l0,193.127c0,25.706 20.84,46.546 46.546,46.546l0,0l139.636,0c25.706,0 46.546,-20.84 46.546,-46.546l0,0l0,-193.127c-0.001,-10.57 -3.598,-20.824 -10.2,-29.078l0,0z"/>
  <path id="svg_15" fill="#FF3F85" d="m156.438,144.363c-6.427,0.004 -11.633,5.218 -11.629,11.644c0.002,2.64 0.901,5.2 2.549,7.261l56.996,71.245c3.296,4.13 5.093,9.255 5.1,14.539l0,16.993c0,0.215 0.005,0.429 0.017,0.64c-0.012,0.212 -0.017,0.425 -0.017,0.64l0,174.854c-0.014,12.848 -10.426,23.258 -23.272,23.272l-31.296,0c-6.427,0 -11.637,5.21 -11.637,11.637s5.21,11.637 11.637,11.637l0,0l31.296,0c25.706,0 46.546,-20.84 46.546,-46.546l0,0l0,-174.854c0,-0.215 -0.005,-0.429 -0.017,-0.64c0.012,-0.212 0.017,-0.425 0.017,-0.64l0,-16.992c0,-10.569 -3.597,-20.823 -10.2,-29.077l-0.632,-0.79l-0.015,-0.02c-0.101,-0.128 -0.214,-0.267 -0.338,-0.422l-0.007,-0.009l-0.046,-0.057l0,0l-0.049,-0.061l-0.001,-0.001l-0.098,-0.122l-0.008,-0.01l-0.205,-0.256l-0.022,-0.027c-0.033,-0.041 -0.065,-0.082 -0.1,-0.125l-0.005,-0.007l-0.11,-0.137l-0.016,-0.021l-0.051,-0.063l-0.005,-0.008l-0.051,-0.064l-55.27,-69.087c-2.211,-2.741 -5.542,-4.331 -9.061,-4.326l0,0z"/>
  <circle id="svg_16" fill="#4A4F73" r="23.272" cy="162.906" cx="116.367"/>
  <g id="svg_17">
   <path id="svg_18" fill="#FF83B0" d="m34.909,255.998l0,0c6.427,0 11.637,5.21 11.637,11.637l0,116.364c0,6.427 -5.21,11.637 -11.637,11.637l0,0c-6.427,0 -11.637,-5.21 -11.637,-11.637l0,-116.365c0,-6.427 5.211,-11.636 11.637,-11.636z"/>
   <path id="svg_19" fill="#FF83B0" d="m34.909,418.907l0,0c6.427,0 11.637,5.21 11.637,11.637l0,23.272c0,6.427 -5.21,11.637 -11.637,11.637l0,0c-6.427,0 -11.637,-5.21 -11.637,-11.637l0,-23.272c0,-6.427 5.211,-11.637 11.637,-11.637z"/>
  </g>
  <path id="svg_20" fill="#F64689" d="m279.273,302.543l186.182,0c12.853,0 23.272,10.419 23.272,23.272l0,0c0,12.853 -10.419,23.272 -23.272,23.272l-186.182,0c-12.853,0 -23.272,-10.419 -23.272,-23.272l0,0c0,-12.853 10.419,-23.272 23.272,-23.272z"/>
  <path id="svg_21" fill="#DDDFF5" d="m382.988,56.493c-33.064,19.838 -43.786,62.725 -23.948,95.79l0,0l0.056,0.094l0.021,0.034l0.036,0.06l0.023,0.037l0.035,0.057l0.022,0.036l0.035,0.058l0.023,0.038l0.034,0.056l0.023,0.037l0.036,0.058l0.022,0.035l0.037,0.06l0.02,0.033l0.038,0.061l0.021,0.033l0.039,0.064l0.016,0.026l0.044,0.071l0.013,0.022l0.049,0.079l0.009,0.013l0.055,0.088l0.003,0.005c0.715,1.142 1.457,2.256 2.228,3.344l0.008,0.011l0.053,0.076l0.013,0.017l0.048,0.068l0.017,0.025l0.043,0.06l0.024,0.032l0.037,0.051l0.027,0.038l0.032,0.045l0.033,0.046l0.022,0.029l0.044,0.061l0.004,0.005c0.12,0.166 0.241,0.332 0.362,0.496c3.556,4.827 10.199,6.163 15.344,3.084c0.315,-0.189 0.624,-0.395 0.926,-0.617c5.174,-3.812 6.278,-11.097 2.467,-16.271c-0.877,-1.191 -1.705,-2.434 -2.483,-3.729c-13.195,-22.047 -6.052,-50.615 15.964,-63.86c5.511,-3.305 7.299,-10.453 3.994,-15.964s-10.453,-7.299 -15.964,-3.994c-0.003,0.001 -0.004,0.001 -0.005,0.002l0,0z"/>
  <g id="svg_22"/>
  <g id="svg_23"/>
  <g id="svg_24"/>
  <g id="svg_25"/>
  <g id="svg_26"/>
  <g id="svg_27"/>
  <g id="svg_28"/>
  <g id="svg_29"/>
  <g id="svg_30"/>
  <g id="svg_31"/>
  <g id="svg_32"/>
  <g id="svg_33"/>
  <g id="svg_34"/>
  <g id="svg_35"/>
  <g id="svg_36"/>
  <text font-weight="bold" xml:space="preserve" text-anchor="start" font-family="Helvetica, Arial, sans-serif" font-size="250" id="svg_37" y="352.45413" x="665" stroke-width="0" stroke="#000" fill="#000000">ASV Toolbox</text>
 </g>
</svg>